<svg width="25" height="25" viewBox="0 0 25 25" fill="none" xmlns="http://www.w3.org/2000/svg">
<path d="M12.5 6.5V12.5H17M21.5 12.5C21.5 13.6819 21.2672 14.8522 20.8149 15.9442C20.3626 17.0361 19.6997 18.0282 18.864 18.864C18.0282 19.6997 17.0361 20.3626 15.9442 20.8149C14.8522 21.2672 13.6819 21.5 12.5 21.5C11.3181 21.5 10.1478 21.2672 9.05585 20.8149C7.96392 20.3626 6.97177 19.6997 6.13604 18.864C5.30031 18.0282 4.63738 17.0361 4.18508 15.9442C3.73279 14.8522 3.5 13.6819 3.5 12.5C3.5 10.1131 4.44821 7.82387 6.13604 6.13604C7.82387 4.44821 10.1131 3.5 12.5 3.5C14.8869 3.5 17.1761 4.44821 18.864 6.13604C20.5518 7.82387 21.5 10.1131 21.5 12.5Z" stroke="#6B7280" stroke-width="1.5" stroke-linecap="round" stroke-linejoin="round"/>
</svg>
